<svg xmlns="http://www.w3.org/2000/svg" viewBox="0 0 140.8 90.22" fit="" height="100%" width="100%" preserveAspectRatio="xMidYMid meet" focusable="false">
    <path d="M94.45,13.16a33.39,33.39,0,0,1,33.29,33.25V77L95.84,77A32,32,0,0,1,63.92,45.11H50.7a45.1,45.1,0,0,0,45.05,45l45.05.11V45.3A45.19,45.19,0,0,0,95.62.11H76.21L88.75,13.17Z" fill="#ff5000"></path>
    <path d="M78.39,62.53H91.45V44.87A44.86,44.86,0,0,0,46.64.11L0,0V90.11H13.06V11.72l32.65.08A32.84,32.84,0,0,1,78.39,44.53Z" fill="#555759"></path>
</svg>